<svg width="1024" height="1024" viewBox="0 0 1024 1024" fill="none" xmlns="http://www.w3.org/2000/svg">
<path d="M451.634 348.002C452.466 348.008 453.298 348.015 454.155 348.021C464.804 348.335 472.815 351.997 480.482 359.4C488.207 367.934 490.835 377.375 490.817 388.703C490.832 390.168 490.832 390.168 490.848 391.663C490.878 394.86 490.887 398.058 490.896 401.256C490.913 403.485 490.931 405.714 490.95 407.943C490.998 413.787 491.028 419.632 491.054 425.476C491.084 431.449 491.13 437.422 491.175 443.394C491.261 455.097 491.329 466.799 491.384 478.502C491.86 477.674 492.335 476.846 492.824 475.993C493.451 474.909 494.077 473.825 494.722 472.708C495.651 471.095 495.651 471.095 496.599 469.449C502.897 459.052 512.67 452.664 523.384 447.502C524.315 447.047 525.246 446.592 526.205 446.123C537.938 441.326 553.322 442.007 565.384 445.502C566.044 445.832 566.704 446.162 567.384 446.502C567.098 447.2 566.812 447.899 566.517 448.619C561.275 461.959 559.207 471.99 564.9 485.486C569.696 495.23 577.235 502.514 587.384 506.502C592.767 508.307 597.705 508.896 603.322 509.127C604.491 509.185 604.491 509.185 605.683 509.244C607.583 509.337 609.484 509.42 611.384 509.502C611.881 524.526 607.499 537.469 598.384 549.502C597.652 550.499 597.652 550.499 596.904 551.517C586.357 564.747 570.476 571.045 554.384 574.502C553.652 574.675 552.92 574.848 552.166 575.027C548.805 575.601 545.596 575.652 542.186 575.679C541.479 575.685 540.773 575.692 540.045 575.699C537.714 575.718 535.383 575.73 533.052 575.74C532.249 575.744 531.447 575.748 530.619 575.752C526.36 575.773 522.102 575.787 517.843 575.797C513.487 575.808 509.131 575.842 504.776 575.882C501.391 575.908 498.006 575.917 494.621 575.92C493.019 575.925 491.416 575.936 489.813 575.955C469.983 576.173 451.259 571.859 436.514 557.759C422.093 543.388 414.327 527.321 414.227 506.984C414.226 505.735 414.224 504.485 414.223 503.198C414.219 501.853 414.214 500.509 414.208 499.165C414.195 495.528 414.189 491.892 414.184 488.255C414.181 485.979 414.177 483.702 414.173 481.426C414.159 474.29 414.149 467.155 414.145 460.019C414.141 451.806 414.123 443.594 414.094 435.381C414.073 429.015 414.063 422.65 414.061 416.284C414.06 412.49 414.055 408.696 414.037 404.902C414.02 401.331 414.018 397.76 414.027 394.188C414.028 392.267 414.014 390.347 414 388.426C414.056 376.736 416.18 368.044 424.384 359.502C432.788 351.673 440.115 347.908 451.634 348.002Z" fill="#4FC682"/>
<path d="M566.695 446.041C566.409 446.74 566.123 447.438 565.828 448.158C560.586 461.498 558.518 471.529 564.211 485.025C569.007 494.77 576.546 502.054 586.695 506.041C592.078 507.846 597.016 508.435 602.633 508.666C603.412 508.705 604.191 508.743 604.994 508.783C606.894 508.876 608.795 508.96 610.695 509.041C611.192 524.065 606.81 537.009 597.695 549.041C597.207 549.706 596.718 550.371 596.215 551.057C587.691 561.748 575.424 567.798 562.695 572.041C541.166 573.678 525.103 568.734 508.574 554.924C506.695 553.041 506.695 553.041 506.695 551.041C506.035 551.041 505.375 551.041 504.695 551.041C503.14 549.072 501.718 547.118 500.32 545.041C499.914 544.439 499.508 543.838 499.089 543.218C487.315 525.573 484.765 504.617 488.758 483.853C492.861 469.464 502.791 458.023 515.633 450.603C517.962 449.346 520.308 448.191 522.695 447.041C523.626 446.586 524.557 446.131 525.515 445.662C536.876 441.017 555.445 440.416 566.695 446.041Z" fill="#359760"/>
<path d="M558.349 352.677C560.842 354.687 562.536 356.664 564.318 359.337C564.978 359.337 565.638 359.337 566.318 359.337C567.405 358.126 568.439 356.867 569.443 355.587C573.931 350.304 579.319 347.02 586.318 346.337C586.94 346.25 587.561 346.164 588.201 346.075C595.431 345.492 601.382 348.376 607.318 352.337C609.872 355.16 611.842 357.983 613.506 361.399C613.829 362.05 614.153 362.701 614.486 363.372C618.687 373.292 616.104 383.715 612.318 393.337C609.002 400.648 604.879 406.579 599.318 412.337C598.786 412.931 598.253 413.525 597.705 414.138C589.635 422.823 576.938 430.798 565.072 432.696C552.938 431.99 539.671 421.29 531.588 412.895C525.548 406.086 519.72 398.852 516.318 390.337C515.906 389.305 515.493 388.274 515.068 387.212C512.956 376.298 513.769 366.197 519.381 356.501C529.156 343.128 545.857 344.436 558.349 352.677Z" fill="url(#paint0_linear_1_2)"/>
<path d="M577 452C588.684 455.651 598.387 466.985 604.492 477.094C607.994 483.843 610.282 490.355 610 498C597.87 498.466 589.544 497.831 580.016 489.969C573.504 483.608 571.857 477.533 571.75 468.625C571.724 467.339 571.698 466.052 571.672 464.727C572.129 459.534 574.154 456.269 577 452Z" fill="#47B976"/>
<path d="M417.856 615.256C422.08 615.256 425.685 616.771 428.672 619.8C431.701 622.829 433.216 626.456 433.216 630.68V632.344C433.216 636.568 431.701 640.195 428.672 643.224C425.685 646.253 422.059 647.768 417.792 647.768C413.568 647.768 409.941 646.253 406.912 643.224C403.925 640.195 402.432 636.568 402.432 632.344V602.456H410.56V617.112C412.821 615.875 415.253 615.256 417.856 615.256ZM425.088 632.344V630.68C425.088 628.675 424.363 626.968 422.912 625.56C421.504 624.109 419.797 623.384 417.792 623.384C415.829 623.384 414.123 624.109 412.672 625.56C411.264 626.968 410.56 628.675 410.56 630.68V632.344C410.56 634.349 411.264 636.056 412.672 637.464C414.123 638.872 415.829 639.576 417.792 639.576C419.797 639.576 421.504 638.872 422.912 637.464C424.363 636.056 425.088 634.349 425.088 632.344ZM446.391 647H438.199V616.024H446.391V647ZM442.295 610.904C441.441 610.904 440.652 610.712 439.927 610.328C439.244 609.901 438.689 609.347 438.263 608.664C437.879 607.939 437.687 607.149 437.687 606.296C437.687 605.016 438.135 603.928 439.031 603.032C439.927 602.136 441.015 601.688 442.295 601.688C443.575 601.688 444.663 602.136 445.559 603.032C446.455 603.928 446.903 605.016 446.903 606.296C446.903 607.576 446.455 608.664 445.559 609.56C444.663 610.456 443.575 610.904 442.295 610.904ZM467.355 638.872H470.875V647H467.355C463.088 647 459.44 645.507 456.411 642.52C453.424 639.491 451.931 635.843 451.931 631.576V604.376H460.059V616.024H469.339V624.216H460.059V631.576C460.059 633.581 460.763 635.309 462.171 636.76C463.621 638.168 465.349 638.872 467.355 638.872ZM478.897 619.8C481.926 616.771 485.553 615.256 489.777 615.256C494.044 615.256 497.67 616.771 500.657 619.8C503.686 622.829 505.201 626.456 505.201 630.68V632.344C505.201 633.155 505.116 634.008 504.945 634.904H483.057C483.569 636.312 484.444 637.443 485.681 638.296C486.918 639.149 488.305 639.576 489.841 639.576C491.633 639.576 493.233 638.957 494.641 637.72L502.769 640.664C501.361 642.84 499.505 644.568 497.201 645.848C494.94 647.128 492.486 647.768 489.841 647.768C485.574 647.768 481.926 646.253 478.897 643.224C475.91 640.195 474.417 636.568 474.417 632.344V630.68C474.417 626.456 475.91 622.829 478.897 619.8ZM483.057 628.12H496.561C496.049 626.712 495.174 625.581 493.937 624.728C492.7 623.875 491.313 623.448 489.777 623.448C488.284 623.448 486.918 623.875 485.681 624.728C484.444 625.581 483.569 626.712 483.057 628.12ZM524.154 639.576C525.818 639.576 527.29 639.064 528.57 638.04C529.892 637.016 530.746 635.715 531.13 634.136L538.81 637.016C537.786 640.173 535.93 642.755 533.242 644.76C530.554 646.765 527.524 647.768 524.154 647.768C519.887 647.768 516.239 646.253 513.21 643.224C510.223 640.195 508.73 636.568 508.73 632.344V630.68C508.73 626.456 510.223 622.829 513.21 619.8C516.239 616.771 519.887 615.256 524.154 615.256C527.524 615.256 530.554 616.259 533.242 618.264C535.93 620.269 537.786 622.851 538.81 626.008L531.13 628.888C530.746 627.309 529.892 626.008 528.57 624.984C527.29 623.917 525.818 623.384 524.154 623.384C523.13 623.384 522.17 623.576 521.274 623.96C520.378 624.344 519.61 624.877 518.97 625.56C518.33 626.2 517.818 626.968 517.434 627.864C517.05 628.76 516.858 629.699 516.858 630.68V632.344C516.858 634.349 517.562 636.056 518.97 637.464C520.42 638.872 522.148 639.576 524.154 639.576ZM546.585 619.8C549.614 616.771 553.241 615.256 557.465 615.256C561.731 615.256 565.358 616.771 568.345 619.8C571.374 622.829 572.889 626.456 572.889 630.68V632.344C572.889 636.568 571.374 640.195 568.345 643.224C565.358 646.253 561.731 647.768 557.465 647.768C553.241 647.768 549.614 646.253 546.585 643.224C543.598 640.195 542.105 636.568 542.105 632.344V630.68C542.105 626.456 543.598 622.829 546.585 619.8ZM564.761 632.344V630.68C564.761 628.675 564.035 626.968 562.585 625.56C561.177 624.109 559.47 623.384 557.465 623.384C555.502 623.384 553.795 624.109 552.345 625.56C550.937 626.968 550.233 628.675 550.233 630.68V632.344C550.233 634.349 550.937 636.056 552.345 637.464C553.795 638.872 555.502 639.576 557.465 639.576C559.47 639.576 561.177 638.872 562.585 637.464C564.035 636.056 564.761 634.349 564.761 632.344ZM599.838 616.024H607.966V632.344C607.966 636.611 606.451 640.259 603.422 643.288C600.435 646.275 596.809 647.768 592.542 647.768C588.318 647.768 584.691 646.275 581.662 643.288C578.675 640.259 577.182 636.611 577.182 632.344V616.024H585.31V632.344C585.31 634.349 586.014 636.077 587.422 637.528C588.873 638.936 590.579 639.64 592.542 639.64C594.547 639.64 596.254 638.936 597.662 637.528C599.113 636.077 599.838 634.349 599.838 632.344V616.024ZM617.414 619.8C620.443 616.771 624.07 615.256 628.294 615.256C632.56 615.256 636.187 616.771 639.174 619.8C642.203 622.829 643.718 626.456 643.718 630.68V647H635.59V630.68C635.59 628.675 634.864 626.968 633.414 625.56C632.006 624.109 630.32 623.384 628.358 623.384C627.334 623.384 626.374 623.576 625.478 623.96C624.582 624.344 623.814 624.877 623.174 625.56C622.534 626.2 622.022 626.968 621.638 627.864C621.254 628.76 621.062 629.699 621.062 630.68V647H612.934V630.68C612.934 626.456 614.427 622.829 617.414 619.8ZM664.042 638.872H667.562V647H664.042C659.775 647 656.127 645.507 653.098 642.52C650.111 639.491 648.618 635.843 648.618 631.576V604.376H656.746V616.024H666.026V624.216H656.746V631.576C656.746 633.581 657.45 635.309 658.858 636.76C660.309 638.168 662.037 638.872 664.042 638.872Z" fill="black"/>
<defs>
<linearGradient id="paint0_linear_1_2" x1="623.5" y1="337.5" x2="511.014" y2="416.038" gradientUnits="userSpaceOnUse">
<stop offset="0.571814" stop-color="#5AE8CC"/>
<stop offset="0.903456" stop-color="#49FF64"/>
</linearGradient>
</defs>
</svg>
